<?xml version="1.0" encoding="UTF-8"?>
<svg version="1.1" xmlns="http://www.w3.org/2000/svg" width="1600" height="1600">
<path d="M0 0 C0.53915039 0.4758252 1.07830078 0.95165039 1.63378906 1.44189453 C2.88638352 2.54317162 4.15264985 3.62886928 5.421875 4.7109375 C27.91819868 23.9096073 45.45928272 48.65551517 59.1171875 74.74609375 C59.65956055 75.76582275 59.65956055 75.76582275 60.21289062 76.80615234 C72.26813917 99.75258443 79.53049372 125.33258733 84.1171875 150.74609375 C84.29362793 151.70032227 84.47006836 152.65455078 84.65185547 153.63769531 C89.97507555 183.93098542 88.90611189 217.44766267 84.1171875 247.74609375 C83.86775391 249.33067383 83.86775391 249.33067383 83.61328125 250.94726562 C72.33546201 319.82550241 41.60739633 385.65048465 2.34570312 442.95263672 C1.03918113 444.85997188 -0.25788278 446.77354684 -1.5546875 448.6875 C-10.47885692 461.81258209 -19.85548211 474.58377351 -29.60595703 487.10595703 C-30.47557433 488.22299126 -31.34367961 489.34120387 -32.21044922 490.46044922 C-38.43544271 498.49667596 -44.82808109 506.35761997 -51.44726562 514.07226562 C-52.95518793 515.83048251 -54.45834112 517.59269885 -55.9609375 519.35546875 C-61.53166263 525.88269497 -67.15154346 532.35877371 -72.8828125 538.74609375 C-58.94476945 537.15831711 -45.17819613 534.55395055 -31.38150501 532.05351257 C-27.85212745 531.41462312 -24.32204704 530.77963902 -20.79205322 530.14416504 C-14.76017224 529.05776411 -8.72873805 527.96891211 -2.69760132 526.87838745 C5.92497681 525.31932923 14.5483989 523.76497914 23.17200124 522.21159756 C51.30531928 517.1434874 79.43559776 512.05887476 107.5590992 506.93655205 C110.94649029 506.31975959 114.33399298 505.70358423 117.72154236 505.08766174 C119.33693201 504.79393252 119.33693201 504.79393252 120.98495579 504.49426937 C123.09552793 504.11050617 125.20610508 503.72677053 127.31668758 503.34306431 C133.32889211 502.2494903 139.3401207 501.15073347 145.35064507 500.0479641 C149.00662165 499.37818305 152.6633484 498.71257237 156.32028961 498.04808044 C157.98228403 497.74511211 159.64394482 497.44030657 161.30522919 497.13346863 C163.54028651 496.72080403 165.77642202 496.31457641 168.01293945 495.90991211 C169.86892509 495.57001503 169.86892509 495.57001503 171.7624054 495.22325134 C174.93590677 494.77187768 177.91747298 494.65503572 181.1171875 494.74609375 C182.15671408 499.00522613 182.25772091 503.13119819 182.24417114 507.4888916 C182.24573113 508.26142729 182.24729112 509.03396298 182.24889839 509.82990885 C182.25288219 512.41462018 182.24972888 514.99927262 182.24658203 517.58398438 C182.24793723 519.43865493 182.24971784 521.29332522 182.25189209 523.147995 C182.25645226 528.18300473 182.25468266 533.21799398 182.251513 538.25300407 C182.24898211 543.52108694 182.25132898 548.78916804 182.25289917 554.05725098 C182.25471873 562.9042187 182.25232014 571.75117808 182.24755859 580.59814453 C182.24211639 590.82793869 182.24387919 601.05771291 182.249385 611.28750658 C182.2539222 620.06893093 182.2545637 628.85034928 182.25194633 637.63177443 C182.25038691 642.87726639 182.25018066 648.12274899 182.25348282 653.36824036 C182.25637032 658.29955288 182.2543696 663.23083969 182.24858856 668.16214943 C182.2472657 669.97256744 182.24764707 671.78298762 182.24985123 673.59340477 C182.25258127 676.06339775 182.24915882 678.53330819 182.24417114 681.0032959 C182.24640186 681.72071032 182.24863259 682.43812474 182.25093091 683.177279 C182.2366275 686.82606209 181.98331706 690.19740098 181.1171875 693.74609375 C175.00498665 693.92377672 169.42276694 693.28113413 163.4206543 692.16748047 C162.47337432 691.99754357 161.52609434 691.82760668 160.55010891 691.65252018 C157.3876502 691.08350561 154.22708419 690.50459896 151.06640625 689.92578125 C148.79014349 689.51430387 146.5137629 689.1034779 144.23727417 688.69325256 C139.33299924 687.80818095 134.42952876 686.91882083 129.52664185 686.02609253 C121.74351287 684.60899574 113.95872836 683.20114143 106.17358398 681.79516602 C103.49646675 681.31158557 100.8193602 680.82794601 98.14225769 680.34428406 C97.47248368 680.22328616 96.80270968 680.10228826 96.11263949 679.97762376 C91.28801531 679.10590601 86.46364088 678.2328144 81.63935852 677.35920715 C61.68577401 673.74642427 41.72736959 670.16115978 21.765625 666.59375 C21.06628066 666.4687594 20.36693633 666.34376881 19.64639974 666.21499062 C11.34466877 664.73129917 3.04278484 663.24846495 -5.25916702 661.76601005 C-16.30121473 659.79421682 -27.34296863 657.82077999 -38.38460922 655.8467083 C-41.79819157 655.23653686 -45.21185013 654.62679339 -48.6255188 654.0171051 C-62.04918956 651.61836325 -75.46807529 649.19430868 -88.8828125 646.74609375 C-88.79645554 647.71091596 -88.79645554 647.71091596 -88.708354 648.69522953 C-86.66132918 671.56626052 -84.61551502 694.43739974 -82.5703125 717.30859375 C-82.44305007 718.73173763 -82.44305007 718.73173763 -82.31321669 720.1836319 C-77.11745673 778.28738814 -71.93215238 836.39207297 -66.75522009 894.49750936 C-66.47672757 897.62325978 -66.19822573 900.74900938 -65.91972413 903.87475899 C-63.26343239 933.68757964 -60.60742279 963.50042542 -57.95303345 993.31341553 C-56.28235133 1012.07781661 -54.61143148 1030.84219651 -52.9400259 1049.60653317 C-52.79512074 1051.23333854 -52.6502175 1052.86014409 -52.50531617 1054.4869498 C-48.57196786 1098.64641587 -44.62702645 1142.80482169 -40.66310424 1186.96155417 C-39.84147991 1196.11419969 -39.02029787 1205.26688475 -38.19957333 1214.41961099 C-38.01524908 1216.47519175 -37.83091535 1218.53077166 -37.64657837 1220.58635128 C-37.58614915 1221.26021099 -37.52571994 1221.93407071 -37.46345953 1222.62835041 C-37.40323566 1223.29991951 -37.34301178 1223.97148861 -37.28096294 1224.66340828 C-36.92054736 1228.68248153 -36.56013896 1232.70155543 -36.19976389 1236.72063231 C-34.82066869 1252.10016606 -33.43908976 1267.47947192 -32.05326217 1282.85840052 C-31.20208432 1292.30611902 -30.35363585 1301.75408006 -29.50732762 1311.202236 C-28.93432235 1317.59775774 -28.35816868 1323.99298378 -27.77931732 1330.38797891 C-27.42943351 1334.26282089 -27.08287419 1338.13795493 -26.73725927 1342.01317978 C-26.58065325 1343.76196173 -26.4227491 1345.51062812 -26.26330245 1347.25915337 C-25.42535987 1356.4563501 -24.71861171 1365.65087727 -24.21951294 1374.87324524 C-24.1695847 1375.74545879 -24.11965647 1376.61767233 -24.06821525 1377.51631659 C-23.9647305 1379.59124941 -23.91798035 1381.66887963 -23.8828125 1383.74609375 C-25.41648587 1385.27976712 -26.8001459 1384.87148081 -28.93864441 1384.87193489 C-29.81783444 1384.87454264 -30.69702448 1384.87715039 -31.60285664 1384.87983716 C-32.57978065 1384.87760643 -33.55670465 1384.87537571 -34.56323242 1384.87307739 C-36.1070385 1384.87541738 -36.1070385 1384.87541738 -37.68203259 1384.87780464 C-41.15912969 1384.88181948 -44.63618376 1384.87862312 -48.11328125 1384.87548828 C-50.59453355 1384.87684211 -53.07578564 1384.87862193 -55.55703735 1384.88079834 C-61.61388299 1384.88489878 -67.67071149 1384.88427935 -73.72755647 1384.8813857 C-78.647911 1384.87913187 -83.56826205 1384.87881906 -88.48861694 1384.87990952 C-89.18758376 1384.88006275 -89.88655058 1384.88021598 -90.60669822 1384.88037386 C-92.02641495 1384.88069357 -93.44613169 1384.88101778 -94.86584842 1384.88134645 C-108.19409148 1384.88420139 -121.52232767 1384.880914 -134.85056961 1384.87554608 C-146.2991462 1384.87107803 -157.74771265 1384.87185396 -169.19628906 1384.87646484 C-182.47522429 1384.88181036 -195.75415349 1384.8839267 -209.03308964 1384.88085258 C-210.44772911 1384.88053401 -211.86236858 1384.88021964 -213.27700806 1384.87990952 C-213.97312814 1384.87975524 -214.66924823 1384.87960096 -215.38646287 1384.87944201 C-220.30373509 1384.87857679 -225.22100351 1384.88003985 -230.13827515 1384.88238907 C-236.75046728 1384.88547844 -243.36264315 1384.88329463 -249.97483444 1384.87749481 C-252.40937645 1384.87616647 -254.84392007 1384.87656257 -257.27846146 1384.87875748 C-260.58646077 1384.88146609 -263.89439733 1384.8780914 -267.20239258 1384.87307739 C-268.66777859 1384.87642348 -268.66777859 1384.87642348 -270.16276836 1384.87983716 C-271.0419584 1384.87722941 -271.92114843 1384.87462166 -272.82698059 1384.87193489 C-273.59157498 1384.87177254 -274.35616938 1384.87161019 -275.1439333 1384.87144291 C-276.8828125 1384.74609375 -276.8828125 1384.74609375 -277.8828125 1383.74609375 C-277.83565366 1380.80703833 -277.72109485 1377.90130238 -277.55361938 1374.96829224 C-277.50493292 1374.06762059 -277.45624646 1373.16694895 -277.40608466 1372.23898423 C-276.85603523 1362.53822407 -276.02217689 1352.86705979 -275.14990234 1343.19091797 C-274.97245737 1341.1901975 -274.79534925 1339.18944714 -274.61854267 1337.18867016 C-274.13417383 1331.71872601 -273.64499389 1326.24922155 -273.15495849 1320.77978253 C-272.61923887 1314.79097019 -272.08798941 1308.8017609 -271.55610657 1302.81260681 C-270.56165039 1291.6225877 -269.56357938 1280.43289421 -268.56376465 1269.24335296 C-267.6262965 1258.75128527 -266.69061824 1248.2590596 -265.75650024 1237.76669312 C-265.62965566 1236.34198793 -265.50281092 1234.91728277 -265.37596601 1233.49257761 C-265.18405508 1231.33704068 -264.9921447 1229.1815037 -264.8002375 1227.02596644 C-257.12149295 1140.77960874 -249.39389986 1054.537595 -233.62060547 878.50927734 C-233.54080269 877.61941769 -233.46099992 876.72955803 -233.37877887 875.81273293 C-232.04322657 860.92037545 -230.70763228 846.02802173 -229.37192345 831.13567829 C-223.85936366 769.67392516 -218.36266941 708.21077212 -212.8828125 646.74609375 C-214.82992866 647.0968097 -214.82992866 647.0968097 -216.8163805 647.45461082 C-245.07606737 652.54444891 -273.33732093 657.62538376 -301.60191131 662.68792009 C-306.19454095 663.51056859 -310.7871252 664.33347044 -315.37971497 665.15634155 C-324.0297224 666.70616091 -332.6797639 668.25579005 -341.32982093 669.80533254 C-356.78798483 672.57446404 -372.24608445 675.34395437 -387.70417672 678.11348569 C-393.07712689 679.07611659 -398.45008685 680.03869276 -403.82307154 681.00113094 C-405.51594657 681.30439994 -407.20881055 681.60773069 -408.90166324 681.91112435 C-413.00838352 682.6470856 -417.11525812 683.38215911 -421.22250652 684.11516762 C-428.82236183 685.47264148 -436.41990268 686.84082124 -444.01192325 688.24153912 C-447.60304621 688.90359088 -451.19508678 689.56058524 -454.7871958 690.21726298 C-456.49118394 690.53028839 -458.19471197 690.84583061 -459.89773023 691.16409039 C-462.25498149 691.60448944 -464.61368437 692.0361737 -466.97285461 692.46615601 C-468.00034543 692.66175192 -468.00034543 692.66175192 -469.04859364 692.86129928 C-473.744628 693.70523431 -478.13432232 693.85445116 -482.8828125 693.74609375 C-483.68535779 688.82093606 -484.02615506 684.05583979 -484.00979614 679.06217957 C-484.01135613 678.32004772 -484.01291612 677.57791587 -484.01452339 676.81329519 C-484.01849055 674.34320158 -484.01536038 671.87317017 -484.01220703 669.40307617 C-484.01356301 667.62518783 -484.01534405 665.84729976 -484.01751709 664.06941223 C-484.02206904 659.25112013 -484.02031079 654.43284949 -484.017138 649.61455703 C-484.01460167 644.56370089 -484.0169556 639.51284656 -484.01852417 634.46199036 C-484.02034264 625.9775052 -484.01794852 617.49302875 -484.01318359 609.00854492 C-484.00774686 599.21506081 -484.00950065 589.42159753 -484.01501 579.62811393 C-484.01955658 571.20750221 -484.02018395 562.78689674 -484.01757133 554.36628419 C-484.01601638 549.34255114 -484.0157932 544.31882786 -484.01910782 539.29509544 C-484.0220088 534.56811365 -484.01997006 529.84115854 -484.01421356 525.11417961 C-484.01289765 523.38487543 -484.01326009 521.65556898 -484.01547623 519.92626572 C-484.02530355 511.47472828 -483.94466734 503.14702627 -482.8828125 494.74609375 C-474.7076201 495.36203763 -466.74607055 496.53573967 -458.68359375 498.01171875 C-457.4087059 498.24115677 -456.13381805 498.47059479 -454.82029724 498.70698547 C-452.05957549 499.20389143 -449.29941877 499.7037882 -446.53967285 500.20608521 C-442.1051103 501.01320079 -437.66932432 501.81345384 -433.23339844 502.61303711 C-424.56924957 504.17583877 -415.90651274 505.74638254 -407.24393463 507.31786346 C-395.12507626 509.51582778 -383.00536017 511.70906744 -370.8854332 513.90113068 C-368.62726445 514.3095973 -366.36912808 514.71824258 -364.11099243 515.12689209 C-335.02847489 520.38851544 -305.91979044 525.49176828 -276.80029297 530.54443359 C-267.39192307 532.17762485 -257.98587906 533.82407337 -248.58007812 535.47198486 C-246.01826399 535.92081271 -243.4564063 536.36939104 -240.89453125 536.81787109 C-237.22392991 537.46044976 -233.55335921 538.10320311 -229.8828125 538.74609375 C-231.28747954 537.01564094 -232.69412082 535.28679059 -234.1015625 533.55859375 C-234.88466797 532.59566406 -235.66777344 531.63273438 -236.47460938 530.640625 C-238.71622902 527.94631818 -241.02010442 525.3342679 -243.3828125 522.74609375 C-247.197877 518.5495228 -250.82546125 514.23831892 -254.390625 509.828125 C-256.18674859 507.60690006 -257.99289786 505.39708998 -259.8125 503.1953125 C-268.51513574 492.63207596 -276.75796843 481.75797158 -284.8828125 470.74609375 C-285.4396875 469.99602051 -285.9965625 469.24594727 -286.5703125 468.47314453 C-333.71686919 404.8791262 -371.63551676 331.06712257 -385.1328125 252.49609375 C-385.28403564 251.62364014 -385.43525879 250.75118652 -385.59106445 249.85229492 C-388.33206922 232.83515916 -389.26602279 215.77335285 -389.1953125 198.55859375 C-389.19348969 197.62687347 -389.19166687 196.6951532 -389.18978882 195.73519897 C-389.14007086 180.56085799 -388.46978179 165.73032467 -385.8828125 150.74609375 C-385.71120605 149.74175293 -385.53959961 148.73741211 -385.36279297 147.70263672 C-376.1256033 95.54016887 -351.28812816 49.87729104 -314.8828125 11.74609375 C-314.24988281 11.07191406 -313.61695313 10.39773437 -312.96484375 9.703125 C-308.01457849 4.56472614 -302.45113974 0.1907994 -296.8828125 -4.25390625 C-295.83130216 -5.11890614 -294.7805377 -5.9848134 -293.73046875 -6.8515625 C-284.32489046 -14.53069464 -274.30294474 -21.03694838 -263.8828125 -27.25390625 C-263.26390137 -27.62612305 -262.64499023 -27.99833984 -262.00732422 -28.38183594 C-181.19874098 -76.26670664 -73.91805493 -63.59401449 0 0 Z M-227.8828125 69.74609375 C-228.77613281 70.41898438 -229.66945313 71.091875 -230.58984375 71.78515625 C-262.47028363 96.86990866 -282.59209534 134.52380524 -287.4140625 174.796875 C-293.76787947 243.01617121 -268.29780528 309.53918384 -232.8828125 366.74609375 C-232.35574707 367.59768066 -231.82868164 368.44926758 -231.28564453 369.32666016 C-220.42151983 386.79294909 -208.73728264 403.52118807 -196.29248047 419.89111328 C-194.95516701 421.65088253 -193.62377738 423.41499739 -192.29296875 425.1796875 C-187.24300406 431.84370127 -181.97511619 438.27102184 -176.5390625 444.62109375 C-174.08116613 447.49690334 -171.69586049 450.42675258 -169.3203125 453.37109375 C-165.39874464 458.19709528 -161.27602246 462.77785635 -157.046875 467.3359375 C-155.19060272 469.40330211 -153.5036983 471.49253962 -151.8828125 473.74609375 C-148.84044536 472.4085013 -147.00656252 471.0401693 -144.8828125 468.49609375 C-144.27953125 467.78195312 -143.67625 467.0678125 -143.0546875 466.33203125 C-142.33796875 465.47867187 -141.62125 464.6253125 -140.8828125 463.74609375 C-139.9730877 462.69511154 -139.06150428 461.64573634 -138.1484375 460.59765625 C-132.62439638 454.24105087 -127.26322351 447.79201845 -122.10083008 441.13818359 C-119.12242363 437.30355847 -116.08005808 433.53034834 -112.99414062 429.78173828 C-107.10377786 422.61810865 -101.54092957 415.3207151 -96.25195312 407.70410156 C-94.7439321 405.54748091 -93.21293092 403.40828816 -91.6796875 401.26953125 C-45.05721018 335.9476675 -3.31091446 253.31233811 -15.0144043 170.69335938 C-21.77634755 130.30237522 -41.56595129 92.66848516 -75.3269043 68.54443359 C-121.66546727 36.25303963 -182.23567276 35.22075338 -227.8828125 69.74609375 Z " fill="#010101" transform="translate(950.8828125,136.25390625)"/>
<path d="M0 0 C0.99 0.66 1.98 1.32 3 2 C2.1875 4.4375 2.1875 4.4375 1 7 C0.01 7.33 -0.98 7.66 -2 8 C-2.66 8.66 -3.32 9.32 -4 10 C-4.8125 8.375 -4.8125 8.375 -5 6 C-3.53181864 3.75390165 -1.84147142 1.97621323 0 0 Z " fill="#080808" transform="translate(618,168)"/>
<path d="M0 0 C0.66 0 1.32 0 2 0 C0.55746343 3.36591866 -1.33264727 5.51047079 -4 8 C-4.66 7.67 -5.32 7.34 -6 7 C-5.04882866 5.8274869 -4.08882991 4.66212985 -3.125 3.5 C-2.59132813 2.8503125 -2.05765625 2.200625 -1.5078125 1.53125 C-0.76144531 0.77328125 -0.76144531 0.77328125 0 0 Z M-10 11 C-9.01 11.66 -8.02 12.32 -7 13 C-7.99 14.32 -8.98 15.64 -10 17 C-10 16.34 -10 15.68 -10 15 C-10.66 14.67 -11.32 14.34 -12 14 C-11.34 13.01 -10.68 12.02 -10 11 Z " fill="#0A0A0A" transform="translate(632,152)"/>
<path d="M0 0 C0.66 0.33 1.32 0.66 2 1 C0.75457942 2.75326198 -0.49654053 4.50247622 -1.75 6.25 C-2.44609375 7.22453125 -3.1421875 8.1990625 -3.859375 9.203125 C-5.76452299 11.69233296 -7.72684621 13.84971939 -10 16 C-10 12.40941456 -9.10368497 11.25212529 -7.125 8.3125 C-6.59132813 7.50425781 -6.05765625 6.69601562 -5.5078125 5.86328125 C-5.01023437 5.24839844 -4.51265625 4.63351562 -4 4 C-3.34 4 -2.68 4 -2 4 C-1.34 2.68 -0.68 1.36 0 0 Z " fill="#0B0B0B" transform="translate(936,600)"/>
<path d="M0 0 C0.66 0.33 1.32 0.66 2 1 C-0.31 4.3 -2.62 7.6 -5 11 C-5.66 10.67 -6.32 10.34 -7 10 C-6.02223933 8.51990357 -5.0427506 7.04094856 -4.0625 5.5625 C-3.51722656 4.73878906 -2.97195313 3.91507813 -2.41015625 3.06640625 C-1 1 -1 1 0 0 Z " fill="#0A0A0A" transform="translate(952,577)"/>
<path d="M0 0 C0.66 0.66 1.32 1.32 2 2 C1.01 2 0.02 2 -1 2 C-0.67 1.34 -0.34 0.68 0 0 Z M-4 4 C-4 7 -4 7 -5.5 8.6875 C-5.995 9.120625 -6.49 9.55375 -7 10 C-7.99 9.67 -8.98 9.34 -10 9 C-8.02 7.35 -6.04 5.7 -4 4 Z " fill="#0B0B0B" transform="translate(649,136)"/>
<path d="M0 0 C0.66 0.33 1.32 0.66 2 1 C-0.31 3.97 -2.62 6.94 -5 10 C-5.66 9.67 -6.32 9.34 -7 9 C-4.69 6.03 -2.38 3.06 0 0 Z " fill="#0A0A0A" transform="translate(841,561)"/>
<path d="M0 0 C0 0.66 0 1.32 0 2 C-2.97 2.66 -5.94 3.32 -9 4 C-9 3.01 -9 2.02 -9 1 C-5.846632 0.29925156 -3.27275026 0 0 0 Z " fill="#0B0B0B" transform="translate(775,181)"/>
<path d="M0 0 C0.33 0.99 0.66 1.98 1 3 C0.54625 3.433125 0.0925 3.86625 -0.375 4.3125 C-2.20024334 6.10798342 -2.20024334 6.10798342 -4 9 C-4.66 8.67 -5.32 8.34 -6 8 C-6 6 -6 6 -3.5625 3.4375 C-2.716875 2.633125 -1.87125 1.82875 -1 1 C-0.67 0.67 -0.34 0.34 0 0 Z " fill="#121212" transform="translate(805,604)"/>
<path d="M0 0 C1 2 1 2 0.1875 4.5 C-1 7 -1 7 -3 9 C-3.66 8.34 -4.32 7.68 -5 7 C-3.35 4.69 -1.7 2.38 0 0 Z " fill="#0A0A0A" transform="translate(881,504)"/>
<path d="M0 0 C0.66 0.33 1.32 0.66 2 1 C-0.97 4.96 -0.97 4.96 -4 9 C-4.33 8.01 -4.66 7.02 -5 6 C-3.59554165 3.7363436 -1.8032087 1.9791315 0 0 Z " fill="#0C0C0C" transform="translate(905,640)"/>
</svg>
